# xmcd
#
# Track frame offsets:
#	150
#	11883
#	27869
#	43038
#	57808
#	77197
#	95391
#	113126
#	129608
#	144502
#	159885
#	179039
#
# Disc length: 2579 seconds
#
# Revision: 1
# Processed by: cddbd v1.4PL0 Copyright (c) Steve Scherf et al.
# Submitted via: audiograbber 1.81.01
#
DISCID=9c0a110c
DTITLE=Donatello - I Grandi Successi Originali cd1
DYEAR=1900
DGENRE=Pop
TTITLE0=Io mi fermo qui
TTITLE1=Malattia d'amore
TTITLE2=Come dolce la sera
TTITLE3=Ti voglio
TTITLE4=Prova tù (The wold song)
TTITLE5=Come il vento
TTITLE6=100 Volte lei (All i have to do is dream)
TTITLE7=Alice e cambiata
TTITLE8=Storia di un fiore
TTITLE9=Anima mia
TTITLE10=Come e grande la mia casa
TTITLE11=Gira gira sole
EXTD=
EXTT0=
EXTT1=
EXTT2=
EXTT3=
EXTT4=
EXTT5=
EXTT6=
EXTT7=
EXTT8=
EXTT9=
EXTT10=
EXTT11=
PLAYORDER=
